#!OML:ASF H:\BabyWalks\Project 1\Capture day 1\Session 1\baby.ASF
:FULLY-SPECIFIED
:DEGREES
546
root 3.64278 17.6625 -1.74421 -96.2295 85.2409 -95.2838
lowerback 14.5675 0.38675 -0.421449
upperback 5.57428 0.737741 0.36865
thorax -2.29153 0.474894 0.498872
lowerneck 3.59844 -1.92624 4.33698
upperneck -3.20006 -2.4416 -2.42943
head -1.71095 -1.22179 -1.44549
rclavicle 5.96354e-015 -3.97569e-015
rhumerus -48.0224 12.9338 -84.6043
rradius 48.1306
rwrist 1.34498
rhand -1.83715 -17.8176
rfingers 7.12502
rthumb 23.8296 -46.3596
lclavicle 5.96354e-015 -3.97569e-015
lhumerus -35.422 -8.05848 60.1355
lradius 67.1601
lwrist -0.0639757
lhand 1.23755 0.933912
lfingers 7.12502
lthumb 26.7752 29.0589
rfemur -3.17621 13.4538 22.8298
rtibia 21.8993
rfoot -16.822 3.54025
rtoes -6.81887
lfemur -4.04533 -7.13073 -12.1825
ltibia 29.4355
lfoot -28.9605 -11.6925
ltoes 1.44999
547
root 3.66733 17.6635 -1.75164 -93.8345 85.3575 -92.9759
lowerback 14.6025 0.326879 -0.335307
upperback 5.55811 0.671352 0.427206
thorax -2.32631 0.441781 0.521732
lowerneck 3.3084 -1.79767 4.45068
upperneck -2.66138 -2.28845 -2.8938
head -1.49163 -1.13634 -1.61997
rclavicle 5.96354e-015 -3.97569e-015
rhumerus -47.9934 12.8047 -84.327
rradius 47.9465
rwrist 1.10209
rhand -2.37304 -17.9357
rfingers 7.12502
rthumb 23.3156 -46.5438
lclavicle 5.96354e-015 -3.97569e-015
lhumerus -35.1624 -8.12696 60.4025
lradius 67.4072
lwrist 0.20908
lhand 1.09353 1.12765
lfingers 7.12502
lthumb 26.6374 29.2737
rfemur -3.28851 13.5572 22.6845
rtibia 22.0672
rfoot -16.9312 3.60968
rtoes -6.94131
lfemur -3.86221 -7.13813 -12.3557
ltibia 29.1809
lfoot -28.9449 -11.4392
ltoes 1.45936
548
root 3.69236 17.6646 -1.76003 -90.8173 85.5253 -90.0515
lowerback 14.6431 0.270301 -0.305292
upperback 5.54589 0.601861 0.484378
thorax -2.36035 0.406685 0.575427
lowerneck 2.99637 -1.6477 4.58161
upperneck -2.08912 -2.10334 -3.41229
head -1.25828 -1.03583 -1.81594
rclavicle 4.77083e-015 8.74653e-015
rhumerus -47.9523 12.6987 -84.044
rradius 47.7754
rwrist 0.838476
rhand -3.12044 -18.0064
rfingers 7.12502
rthumb 22.5984 -46.7036
lclavicle 4.77083e-015 8.74653e-015
lhumerus -35.025 -8.20716 60.7476
lradius 67.667
lwrist 0.525352
lhand 0.837333 1.27554
lfingers 7.12502
lthumb 26.3921 29.4586
rfemur -3.44114 13.695 22.4735
rtibia 22.3024
rfoot -17.0812 3.66287
rtoes -7.1
lfemur -3.64724 -7.15108 -12.6062
ltibia 28.8718
lfoot -28.9018 -11.1418
ltoes 1.47443
549
root 3.71775 17.6655 -1.76919 -87.0572 85.7229 -86.3866
lowerback 14.696 0.215523 -0.318265
upperback 5.53822 0.529343 0.545171
thorax -2.3964 0.369817 0.657742
lowerneck 2.66904 -1.47648 4.73087
upperneck -1.49585 -1.8852 -3.98793
head -1.01519 -0.920155 -2.03524
rclavicle 2.18663e-015 3.97569e-015
rhumerus -47.9047 12.6148 -83.7588
rradius 47.6232
rwrist 0.56511
rhand -4.05382 -18.0319
rfingers 7.12502
rthumb 21.7023 -46.8354
lclavicle 2.18663e-015 3.97569e-015
lhumerus -35.0106 -8.31304 61.1716
lradius 67.9428
lwrist 0.832731
lhand 0.499409 1.35918
lfingers 7.12502
lthumb 26.0686 29.5903
rfemur -3.62752 13.8647 22.2132
rtibia 22.5956
rfoot -17.2662 3.70251
rtoes -7.24949
lfemur -3.40557 -7.16692 -12.9162
ltibia 28.5184
lfoot -28.8329 -10.8098
ltoes 1.50799
550
root 3.74334 17.6662 -1.77905 -82.3998 85.9373 -81.8304
lowerback 14.7631 0.16382 -0.367503
upperback 5.5323 0.45623 0.610216
thorax -2.43812 0.332425 0.765178
lowerneck 2.33851 -1.28758 4.89921
upperneck -0.898245 -1.63736 -4.61879
head -0.76849 -0.791342 -2.2781
rclavicle -1.49089e-015 4.77083e-015
rhumerus -47.8588 12.5474 -83.4742
rradius 47.4897
rwrist 0.297614
rhand -5.16124 -17.9996
rfingers 7.12502
rthumb 20.6385 -46.9223
lclavicle -1.49089e-015 4.77083e-015
lhumerus -35.1127 -8.45413 61.6749
lradius 68.2306
lwrist 1.07031
lhand 0.131672 1.395
lfingers 7.12502
lthumb 25.7165 29.6776
rfemur -3.84723 14.0616 21.9055
rtibia 22.935
rfoot -17.4826 3.73069
rtoes -7.4736
lfemur -3.14837 -7.18704 -13.2807
ltibia 28.1324
lfoot -28.7419 -10.4466
ltoes 1.56392
551
root 3.76903 17.6666 -1.78952 -76.7468 86.1462 -76.2866
lowerback 14.8431 0.112791 -0.440741
upperback 5.52865 0.381113 0.681647
thorax -2.48409 0.293941 0.893351
lowerneck 2.01217 -1.07996 5.07088
upperneck -0.312024 -1.35786 -5.28641
head -0.522273 -0.648744 -2.53629
rclavicle -9.93923e-016 0
rhumerus -47.8161 12.4913 -83.1902
rradius 47.3761
rwrist 0.0430767
rhand -6.3896 -17.9225
rfingers 7.12502
rthumb 19.4578 -46.9689
lclavicle -9.93923e-016 0
lhumerus -35.3259 -8.63692 62.2549
lradius 68.5319
lwrist 1.20771
lhand -0.227352 1.40476
lfingers 7.12502
lthumb 25.3726 29.7366
rfemur -4.09586 14.2782 21.5609
rtibia 23.3067
rfoot -17.7262 3.74838
rtoes -7.65045
lfemur -2.88645 -7.21027 -13.6861
ltibia 27.7263
lfoot -28.6373 -10.0606
ltoes 1.6412
552
root 3.79477 17.6665 -1.80048 -70.0241 86.3254 -69.6856
lowerback 14.9339 0.0624681 -0.523669
upperback 5.5256 0.305842 0.758516
thorax -2.53484 0.255398 1.03295
lowerneck 1.70227 -0.858843 5.24817
upperneck 0.243382 -1.05312 -5.98523
head -0.283692 -0.495574 -2.80872
rclavicle 1.59028e-015 -1.19271e-015
rhumerus -47.7792 12.4351 -82.9106
rradius 47.2761
rwrist -0.186693
rhand -7.70591 -17.8106
rfingers 7.12502
rthumb 18.1918 -46.9799
lclavicle 1.59028e-015 -1.19271e-015
lhumerus -35.6412 -8.8583 62.9057
lradius 68.8496
lwrist 1.21889
lhand -0.521334 1.41966
lfingers 7.12502
lthumb 25.0909 29.7912
rfemur -4.37462 14.5126 21.1894
rtibia 23.7
rfoot -17.9941 3.7561
rtoes -7.8668
lfemur -2.63064 -7.22914 -14.1173
ltibia 27.3091
lfoot -28.5232 -9.66542
ltoes 1.75024
553
root 3.82049 17.6661 -1.81186 -62.3113 86.447 -62.1133
lowerback 15.0302 0.0119779 -0.60243
upperback 5.52014 0.230985 0.840674
thorax -2.59062 0.217124 1.17594
lowerneck 1.42887 -0.627178 5.43039
upperneck 0.745216 -0.727189 -6.70316
head -0.0624873 -0.333446 -3.09138
rclavicle -2.48481e-015 -1.39149e-015
rhumerus -47.7545 12.3717 -82.6378
rradius 47.1893
rwrist -0.392255
rhand -9.06987 -17.6714
rfingers 7.12502
rthumb 16.8792 -46.9578
lclavicle -2.48481e-015 -1.39149e-015
lhumerus -36.0447 -9.11012 63.6164
lradius 69.1712
lwrist 1.12486
lhand -0.716955 1.46292
lfingers 7.12502
lthumb 24.9035 29.8606
rfemur -4.68636 14.7578 20.8029
rtibia 24.1059
rfoot -18.2811 3.75294
rtoes -8.00239
lfemur -2.39335 -7.23517 -14.5561
ltibia 26.888
lfoot -28.4069 -9.2741
ltoes 1.89344
554
root 3.84635 17.6652 -1.82341 -53.9069 86.4993 -53.8704
lowerback 15.1298 -0.041721 -0.673279
upperback 5.51202 0.152852 0.922457
thorax -2.65036 0.177357 1.31494
lowerneck 1.19436 -0.390543 5.61715
upperneck 1.18196 -0.388682 -7.42999
head 0.137317 -0.166249 -3.38078
rclavicle 1.2921e-015 -3.97569e-016
rhumerus -47.7403 12.3028 -82.3792
rradius 47.1095
rwrist -0.582796
rhand -10.4274 -17.5201
rfingers 7.12502
rthumb 15.5721 -46.9132
lclavicle 1.2921e-015 -3.97569e-016
lhumerus -36.5284 -9.38329 64.3716
lradius 69.4951
lwrist 0.966314
lhand -0.801061 1.55352
lfingers 7.12502
lthumb 24.8229 29.9623
rfemur -5.02769 15.0137 20.4021
rtibia 24.5165
rfoot -18.5853 3.735
rtoes -8.1205
lfemur -2.1807 -7.22479 -14.998
ltibia 26.4678
lfoot -28.2948 -8.90171
ltoes 2.06946
555
root 3.87249 17.6641 -1.83502 -45.1182 86.4724 -45.2702
lowerback 15.2266 -0.0988985 -0.738669
upperback 5.50015 0.0704339 0.999293
thorax -2.71192 0.13554 1.44675
lowerneck 1.01026 -0.149859 5.80965
upperneck 1.53627 -0.0406267 -8.15139
head 0.308058 0.00529454 -3.67216
rclavicle 9.0447e-015 -1.77912e-014
rhumerus -47.7395 12.2281 -82.1411
rradius 47.0371
rwrist -0.75802
rhand -11.7413 -17.3707
rfingers 7.12502
rthumb 14.3063 -46.8579
lclavicle 9.0447e-015 -1.77912e-014
lhumerus -37.0777 -9.65803 65.1563
lradius 69.8103
lwrist 0.787961
lhand -0.776563 1.67815
lfingers 7.12502
lthumb 24.8464 30.0837
rfemur -5.40402 15.2754 19.9829
rtibia 24.9278
rfoot -18.9027 3.70766
rtoes -8.06509
lfemur -1.99933 -7.18902 -15.4414
ltibia 26.0486
lfoot -28.1903 -8.55706
ltoes 2.26941
556
root 3.8991 17.6627 -1.84643 -36.5478 86.3532 -36.916
lowerback 15.3167 -0.160562 -0.788396
upperback 5.48708 -0.0159556 1.07162
thorax -2.77072 0.0919048 1.56599
lowerneck 0.883338 0.0896958 6.0078
upperneck 1.79313 0.307518 -8.85624
head 0.442614 0.177367 -3.96149
rclavicle -1.6201e-014 -1.65488e-014
rhumerus -47.7527 12.1475 -81.9277
rradius 46.9777
rwrist -0.934193
rhand -12.9685 -17.2368
rfingers 7.12502
rthumb 13.1235 -46.8038
lclavicle -1.6201e-014 -1.65488e-014
lhumerus -37.6778 -9.91173 65.9549
lradius 70.1079
lwrist 0.632459
lhand -0.661596 1.82417
lfingers 7.12502
lthumb 24.9565 30.2145
rfemur -5.81301 15.5464 19.5614
rtibia 25.3361
rfoot -19.2306 3.66721
rtoes -7.98578
lfemur -1.85062 -7.11619 -15.8663
ltibia 25.6301
lfoot -28.0952 -8.26067
ltoes 2.49587
557
root 3.92639 17.6614 -1.85738 -28.509 86.1546 -29.1189
lowerback 15.4011 -0.22643 -0.83434
upperback 5.47407 -0.107854 1.13299
thorax -2.82586 0.0456473 1.67283
lowerneck 0.813879 0.32632 6.21628
upperneck 1.94798 0.65084 -9.53655
head 0.538342 0.348319 -4.2468
rclavicle 4.38879e-015 -4.34841e-016
rhumerus -47.784 12.0615 -81.747
rradius 46.9349
rwrist -1.11542
rhand -14.0823 -17.1198
rfingers 7.12502
rthumb 12.0497 -46.7529
lclavicle 4.38879e-015 -4.34841e-016
lhumerus -38.3156 -10.1281 66.7526
lradius 70.3786
lwrist 0.534287
lhand -0.493488 1.98318
lfingers 7.12502
lthumb 25.1176 30.351
rfemur -6.24889 15.826 19.1273
rtibia 25.7374
rfoot -19.5636 3.62021
rtoes -7.89478
lfemur -1.73202 -7.00823 -16.2828
ltibia 25.2127
lfoot -28.0088 -8.01817
ltoes 2.76559
558
root 3.95447 17.6599 -1.86761 -21.3876 85.8796 -22.2635
lowerback 15.4775 -0.294838 -0.868279
upperback 5.46501 -0.201591 1.18521
thorax -2.87223 -0.00136206 1.76381
lowerneck 0.77852 0.551804 6.44383
upperneck 2.01466 0.976295 -10.193
head 0.602022 0.511672 -4.53021
rclavicle 9.93923e-015 3.72721e-015
rhumerus -47.8377 11.9697 -81.6008
rradius 46.9198
rwrist -1.30809
rhand -15.0548 -17.0259
rfingers 7.12502
rthumb 11.1119 -46.7117
lclavicle 9.93923e-015 3.72721e-015
lhumerus -38.9732 -10.2882 67.5363
lradius 70.611
lwrist 0.494725
lhand -0.308779 2.12866
lfingers 7.12502
lthumb 25.2946 30.4716
rfemur -6.70734 16.1195 18.6949
rtibia 26.1266
rfoot -19.8973 3.56474
rtoes -7.78015
lfemur -1.64267 -6.8573 -16.6752
ltibia 24.7993
lfoot -27.9356 -7.83651
ltoes 3.06269
559
root 3.9833 17.6585 -1.87684 -15.3484 85.5429 -16.5112
lowerback 15.5505 -0.366276 -0.887108
upperback 5.46291 -0.297073 1.22914
thorax -2.90929 -0.0490084 1.83804
lowerneck 0.77026 0.767156 6.67707
upperneck 1.99591 1.28305 -10.8086
head 0.634681 0.667169 -4.80276
rclavicle -6.48535e-015 -8.94531e-016
rhumerus -47.9159 11.8732 -81.4924
rradius 46.9396
rwrist -1.50862
rhand -15.8501 -16.9686
rfingers 7.12502
rthumb 10.3448 -46.6942
lclavicle -6.48535e-015 -8.94531e-016
lhumerus -39.6352 -10.3718 68.2931
lradius 70.7956
lwrist 0.50415
lhand -0.132974 2.2483
lfingers 7.12502
lthumb 25.463 30.5673
rfemur -7.1814 16.4288 18.2724
rtibia 26.4994
rfoot -20.2274 3.50314
rtoes -7.63131
lfemur -1.58167 -6.66054 -17.0356
ltibia 24.3948
lfoot -27.8769 -7.72343
ltoes 3.39792
560
root 4.01287 17.657 -1.88485 -10.3605 85.1621 -11.8295
lowerback 15.6198 -0.438627 -0.892182
upperback 5.47103 -0.391393 1.26745
thorax -2.9336 -0.0958681 1.89848
lowerneck 0.812378 0.971738 6.85624
upperneck 1.91669 1.57929 -11.7414
head 0.572305 0.811114 -4.64052
rclavicle -5.46658e-015 1.72943e-014
rhumerus -48.0174 11.775 -81.4225
rradius 46.9906
rwrist -1.71638
rhand -16.4705 -16.9461
rfingers 7.12502
rthumb 9.74625 -46.7005
lclavicle -5.46658e-015 1.72943e-014
lhumerus -40.2827 -10.3595 69.0122
lradius 70.9209
lwrist 0.523745
lhand 0.0308768 2.33234
lfingers 7.12502
lthumb 25.6199 30.6288
rfemur -7.66653 16.7495 17.8631
rtibia 26.8509
rfoot -20.5485 3.44771
rtoes -7.46832
lfemur -1.55006 -6.42898 -17.3619
ltibia 24.0075
lfoot -27.8357 -7.67015
ltoes 3.76948
